<?xml version="1.0" encoding="UTF-8"?>
<svg id="Layer_1" xmlns="http://www.w3.org/2000/svg" version="1.1" viewBox="0 0 100 30">
  <!-- Generator: Adobe Illustrator 29.5.1, SVG Export Plug-In . SVG Version: 2.1.0 Build 141)  -->
  <defs>
    <style>
      .st0 {
        fill: #22c55e;
      }

      .st1 {
        fill: #ffcd05;
      }
    </style>
  </defs>
  <g>
    <path class="st0" d="M3.3,26.7V3.6h5.2v18.5h9.9v4.6H3.3Z"/>
    <path class="st0" d="M41,23.5c-2.3,2.3-5.2,3.4-8.6,3.4s-6.3-1.1-8.6-3.4c-2.3-2.3-3.5-5.1-3.5-8.5s1.2-6.2,3.5-8.5c2.2-2.3,5.1-3.5,8.5-3.5s6.3,1.1,8.6,3.4c2.3,2.3,3.5,5.1,3.5,8.5.1,3.5-1.1,6.3-3.4,8.6ZM39.2,15c0-2.1-.7-3.8-2-5.3s-3-2.2-4.9-2.2-3.6.7-4.9,2.2-2,3.2-2,5.3.7,3.8,2,5.3c1.3,1.4,3,2.2,4.9,2.2s3.6-.7,4.9-2.2c1.4-1.5,2-3.2,2-5.3Z"/>
    <path class="st0" d="M63.9,14.9h5.2v8.2c-2.3,2.6-5.5,3.8-9.5,3.8-3.4,0-6.3-1.1-8.6-3.4s-3.5-5.1-3.5-8.5,1.2-6.3,3.5-8.6c2.4-2.2,5.2-3.4,8.6-3.4s6.2,1.1,8.7,3.3l-2.7,3.9c-1-.9-2-1.5-2.9-1.9-.9-.3-1.8-.5-2.8-.5-2,0-3.6.7-5,2-1.3,1.3-2,3.1-2,5.3s.6,3.9,1.9,5.2c1.3,1.3,2.8,2,4.6,2s3.3-.3,4.5-1c0,0,0-6.4,0-6.4Z"/>
  </g>
  <g>
    <path class="st0" d="M92.42,15.15c-.35,0-.69-.04-1.02-.1-.01,2.08-.71,3.76-2,5.25-1.3,1.5-3,2.2-4.9,2.2s-3.6-.8-4.9-2.2c-1.3-1.5-2-3.2-2-5.3s.7-3.8,2-5.3,3-2.2,4.9-2.2c1.15,0,2.22.26,3.18.79.62-1.65,2.06-2.89,3.84-3.21-2-1.4-4.35-2.08-7.02-2.08-3.4,0-6.3,1.2-8.5,3.5-2.3,2.3-3.5,5.1-3.5,8.5s1.2,6.2,3.5,8.5,5.2,3.4,8.6,3.4,6.3-1.1,8.6-3.4,3.5-5.1,3.4-8.6c0-.62-.05-1.21-.13-1.79-.93,1.23-2.39,2.04-4.05,2.04Z"/>
    <path class="st1" d="M92.42,6.85c-.2,0-.39.02-.57.06-1.12.2-2.04.99-2.43,2.03-.13.35-.21.73-.21,1.13,0,1.56,1.1,2.85,2.57,3.15.21.04.43.07.65.07,1.05,0,1.98-.51,2.56-1.29.4-.54.65-1.2.65-1.92,0-1.78-1.44-3.22-3.22-3.22h0Z"/>
  </g>
</svg>